#!OML:ASF I:\Actors\actors\Patient Classification 1\Patient 1\Session 1\Subject1.ASF
:FULLY-SPECIFIED
:DEGREES
569
root -0.8595 17.7556 7.91565 33.8861 -12.133 -5.75153
lowerback 22.4629 -0.268952 6.86194
upperback -1.91605 1.91765 2.73131
thorax -14.8119 0.448182 -1.4442
lowerneck -16.2497 4.67412 7.90413
upperneck 6.70057 5.64964 -9.50003
head 5.15793 2.35213 -3.74733
rclavicle -3.97569e-015 -4.57205e-014
rhumerus 16.8022 19.0194 -72.6519
rradius 62.951
rwrist 0.601787
rhand -12.6772 -26.0104
rfingers 7.12502
rthumb 13.4043 -775.559
lclavicle -3.97569e-015 -4.57205e-014
lhumerus -164.597 201.878 -93.8138
lradius 54.7881
lwrist 22.9371
lhand -38.2384 -29.0595
lfingers 7.12502
lthumb -11.2692 0.617784
rfemur -38.9432 26.5326 7.23226
rtibia 4.32458
rfoot -3.58591 -24.38
rtoes 3.88088
lfemur -29.0733 -44.4133 11.7638
ltibia -4.09026
lfoot -52.93 57.1367
ltoes 34.5819
570
root -0.906401 17.7605 7.95454 32.2985 -11.1262 -6.19355
lowerback 21.8993 -0.351395 7.27951
upperback -2.29761 1.90608 2.79159
thorax -14.9337 0.403765 -1.59694
lowerneck -16.3361 4.65543 7.83128
upperneck 8.43377 5.66999 -8.88979
head 5.69204 2.38246 -3.53781
rclavicle 1.78906e-014 -3.18055e-014
rhumerus 14.1796 19.8819 -73.5016
rradius 64.3814
rwrist 0.393308
rhand -12.8235 -26.1678
rfingers 7.12502
rthumb 13.2633 -775.726
lclavicle 1.78906e-014 -3.18055e-014
lhumerus -167.462 202.216 -93.4955
lradius 56.3427
lwrist 22.6058
lhand -38.2859 -29.0115
lfingers 7.12502
lthumb -11.315 0.663267
rfemur -36.2525 25.5495 10.2016
rtibia 4.54104
rfoot -3.66347 -22.8278
rtoes 3.13288
lfemur -27.7257 -45.9081 11.6943
ltibia -3.60343
lfoot -52.2701 58.7572
ltoes 31.896
571
root -0.956322 17.7613 8.00033 30.7083 -10.0822 -6.72555
lowerback 21.2628 -0.421789 7.77247
upperback -2.65776 1.92153 2.88765
thorax -14.9833 0.368462 -1.75896
lowerneck -16.3916 4.61386 7.82589
upperneck 10.2384 5.63531 -8.28802
head 6.24806 2.39407 -3.34876
rclavicle -7.95139e-016 -1.43125e-014
rhumerus 11.5694 20.833 -74.336
rradius 65.3938
rwrist 1.92324
rhand -13.7939 -25.6597
rfingers 7.12502
rthumb 12.3279 -775.276
lclavicle -7.95139e-016 -1.43125e-014
lhumerus -170.316 202.593 -93.1437
lradius 58.0705
lwrist 22.4706
lhand -38.3084 -29.1376
lfingers 7.12502
lthumb -11.3367 0.535989
rfemur -33.6316 24.9125 12.8779
rtibia 4.67817
rfoot -4.08677 -21.8325
rtoes 2.98264
lfemur -26.1591 -47.4491 11.5832
ltibia -3.26074
lfoot -52.1592 59.9986
ltoes 29.7528
572
root -1.01245 17.7645 8.05534 29.2264 -9.32088 -6.82829
lowerback 20.3511 -0.35619 7.71242
upperback -3.04448 1.92311 2.86262
thorax -14.9048 0.370909 -1.74048
lowerneck -16.6252 4.43594 7.54287
upperneck 12.2446 5.4221 -7.44633
head 6.87767 2.32912 -3.05538
rclavicle -9.74045e-015 3.10104e-014
rhumerus 9.038 21.2071 -75.2117
rradius 67.1821
rwrist 0.312343
rhand -12.8431 -26.5148
rfingers 7.12502
rthumb 13.2445 -776.074
lclavicle -9.74045e-015 3.10104e-014
lhumerus -173.173 203.016 -92.7122
lradius 59.9565
lwrist 22.5237
lhand -38.1259 -29.0361
lfingers 7.12502
lthumb -11.1607 0.647097
rfemur -31.3464 24.47 14.5627
rtibia 4.76654
rfoot -4.71466 -21.252
rtoes 3.4491
lfemur -24.5844 -48.9853 10.8443
ltibia -2.94755
lfoot -52.8238 60.7509
ltoes 28.378
573
root -1.07094 17.7692 8.11204 27.8964 -8.72635 -6.50006
lowerback 19.2522 -0.222295 7.16126
upperback -3.50025 1.86347 2.71698
thorax -14.8005 0.381265 -1.56108
lowerneck -16.6114 4.25837 7.36749
upperneck 14.0579 5.2102 -6.84547
head 7.42561 2.26282 -2.86115
rclavicle -2.44505e-014 4.09496e-014
rhumerus 6.4514 21.7284 -76.0656
rradius 68.8563
rwrist -0.882355
rhand -12.6539 -26.8288
rfingers 7.12502
rthumb 13.4268 -776.376
lclavicle -2.44505e-014 4.09496e-014
lhumerus -176.023 203.377 -92.1955
lradius 61.9329
lwrist 22.5438
lhand -37.7721 -28.5742
lfingers 7.12502
lthumb -10.8195 1.12711
rfemur -29.4386 23.9697 15.4742
rtibia 4.90245
rfoot -5.35621 -20.8943
rtoes 3.98576
lfemur -22.0974 -47.9223 8.16641
ltibia -2.87601
lfoot -48.7513 59.8804
ltoes 26.6665
574
root -1.13121 17.7743 8.16891 26.6574 -8.22796 -5.6087
lowerback 18.0545 -0.0634912 6.01708
upperback -4.01931 1.68084 2.40982
thorax -14.7165 0.377646 -1.19237
lowerneck -16.4115 4.06108 7.38063
upperneck 15.8092 4.92679 -6.29262
head 7.93201 2.17877 -2.72486
rclavicle -6.06293e-015 -4.41302e-014
rhumerus 3.95069 22.3011 -76.9573
rradius 70.39
rwrist -1.76071
rhand -12.8152 -26.9571
rfingers 7.12502
rthumb 13.2714 -776.515
lclavicle -6.06293e-015 -4.41302e-014
lhumerus -178.746 203.711 -91.6824
lradius 63.9065
lwrist 22.607
lhand -37.376 -27.989
lfingers 7.12502
lthumb -10.4374 1.73187
rfemur -27.8647 23.4163 15.5121
rtibia 5.13289
rfoot -6.10786 -20.8779
rtoes 4.62929
lfemur -20.1329 -46.7136 5.28622
ltibia -2.69698
lfoot -43.7969 59.045
ltoes 24.0068
575
root -1.18853 17.7721 8.22397 25.287 -7.50078 -4.98286
lowerback 17.094 0.038923 5.26021
upperback -4.49867 1.55784 2.15025
thorax -14.7124 0.369084 -1.00937
lowerneck -16.4911 3.74603 6.84912
upperneck 17.857 4.46654 -5.1363
head 8.55817 2.03942 -2.31568
rclavicle 2.37548e-014 -8.94531e-015
rhumerus 1.56675 22.7203 -77.7795
rradius 71.8072
rwrist -2.23123
rhand -12.8457 -27.1262
rfingers 7.12502
rthumb 13.242 -776.686
lclavicle 2.37548e-014 -8.94531e-015
lhumerus -181.358 204.056 -91.1599
lradius 65.8181
lwrist 22.7078
lhand -36.9486 -27.546
lfingers 7.12502
lthumb -10.025 2.19519
rfemur -26.0406 22.8523 16.0062
rtibia 5.37373
rfoot -6.92718 -20.8973
rtoes 5.04833
lfemur -18.0004 -45.2005 2.67758
ltibia -2.54672
lfoot -38.3119 57.8018
ltoes 20.8257
576
root -1.24127 17.7637 8.27733 23.8228 -6.58139 -4.71522
lowerback 16.3302 0.0919517 4.95127
upperback -4.90717 1.50298 1.98394
thorax -14.7326 0.357713 -0.996379
lowerneck -16.3073 3.42869 6.40318
upperneck 19.5718 3.98274 -4.10801
head 9.04788 1.89456 -1.96404
rclavicle 5.26779e-015 1.33186e-014
rhumerus -0.692888 22.9999 -78.5209
rradius 73.1712
rwrist -2.23163
rhand -12.6918 -27.4113
rfingers 7.12502
rthumb 13.3903 -776.961
lclavicle 5.26779e-015 1.33186e-014
lhumerus -183.794 204.351 -90.6646
lradius 67.6019
lwrist 22.6795
lhand -36.5948 -27.331
lfingers 7.12502
lthumb -9.68374 2.42637
rfemur -23.9774 22.2944 17.0232
rtibia 5.57442
rfoot -7.73227 -20.8559
rtoes 5.14815
lfemur -15.7748 -43.5229 0.527728
ltibia -2.41483
lfoot -33.2202 56.1045
ltoes 17.6064
577
root -1.29056 17.7522 8.33176 22.4329 -5.55315 -4.46707
lowerback 15.4691 0.0805457 4.67779
upperback -5.25576 1.36578 1.83824
thorax -14.6226 0.310371 -0.957337
lowerneck -15.9103 3.19134 6.2531
upperneck 20.9305 3.60433 -3.47302
head 9.40991 1.78626 -1.78014
rclavicle -1.21259e-014 -2.44505e-014
rhumerus -2.85168 23.8156 -79.3347
rradius 73.6577
rwrist 1.32473
rhand -14.3685 -26.045
rfingers 7.12502
rthumb 11.7738 -775.694
lclavicle -1.21259e-014 -2.44505e-014
lhumerus -185.907 204.415 -90.2619
lradius 69.1516
lwrist 22.3632
lhand -36.4055 -27.1303
lfingers 7.12502
lthumb -9.50108 2.63546
rfemur -21.958 21.7775 17.9638
rtibia 5.69384
rfoot -8.58945 -20.9882
rtoes 5.48232
lfemur -13.8837 -41.9093 -1.2695
ltibia -2.17948
lfoot -28.8621 54.1601
ltoes 14.485
578
root -1.33903 17.7388 8.38557 21.1882 -4.40507 -4.27758
lowerback 14.4468 0.0638602 4.47194
upperback -5.57647 1.23148 1.71685
thorax -14.376 0.262515 -0.930697
lowerneck -15.8763 2.91724 5.90465
upperneck 22.7256 3.14885 -2.65358
head 9.99435 1.65118 -1.50482
rclavicle -8.64713e-015 -1.98785e-016
rhumerus -4.60108 23.4138 -80.085
rradius 75.5422
rwrist -1.53069
rhand -11.8667 -27.562
rfingers 7.12502
rthumb 14.1854 -777.058
lclavicle -8.64713e-015 -1.98785e-016
lhumerus -187.711 204.286 -89.8366
lradius 70.4081
lwrist 21.7098
lhand -36.1831 -26.9196
lfingers 7.12502
lthumb -9.2865 2.85587
rfemur -20.0689 21.3467 18.857
rtibia 5.7014
rfoot -9.32642 -21.3969
rtoes 5.88073
lfemur -12.4062 -40.4413 -2.59259
ltibia -1.88518
lfoot -25.2134 52.1733
ltoes 11.4402
579
root -1.38663 17.7257 8.437 20.0614 -3.21141 -4.16451
lowerback 13.4286 0.092378 4.36327
upperback -5.93286 1.18467 1.60033
thorax -14.1664 0.24499 -0.977248
lowerneck -15.7062 2.58978 5.39771
upperneck 24.3666 2.64978 -1.85132
head 10.5128 1.48666 -1.21073
rclavicle 1.29707e-014 -1.47101e-014
rhumerus -6.72328 24.7499 -80.9432
rradius 76.0077
rwrist -1.2519
rhand -16.6475 -25.3611
rfingers 7.12502
rthumb 9.57547 -775.123
lclavicle 1.29707e-014 -1.47101e-014
lhumerus -189.346 204.153 -89.3609
lradius 71.3979
lwrist 21.0101
lhand -35.9897 -26.8863
lfingers 7.12502
lthumb -9.09989 2.89735
rfemur -18.2939 20.995 19.7437
rtibia 5.60962
rfoot -9.88215 -22.0032
rtoes 6.39508
lfemur -11.2123 -39.1288 -3.52888
ltibia -1.59803
lfoot -22.2806 50.2493
ltoes 8.52358
